<svg
        xmlns="http://www.w3.org/2000/svg"
        viewBox="0 0 24 24"
        width="64"
        height="64"
        fill="#61DAFB"
      >
        <path d="M14.29 12a3.29 3.29 0 11-3.29-3.29A3.29 3.29 0 0114.29 12zm4.49-2.47h4.12a9.81 9.81 0 00-1.64-4.06l-3.59 2.07a11.49 11.49 0 01.8 2zm0 4.94a11.49 11.49 0 01-.8 2l3.59 2.07a9.81 9.81 0 001.64-4.06zm-4.94 4.49a11.49 11.49 0 01-2 .8v4.12a9.81 9.81 0 004.06-1.64zm-4.94 0a11.49 11.49 0 01-2-.8L3.88 19a9.81 9.81 0 004.06 1.64zm-4.49-4.94a11.49 11.49 0 01-.8-2H0a9.81 9.81 0 001.64 4.06zm0-4.94a11.49 11.49 0 01.8-2L1.64 4.94A9.81 9.81 0 000 9zm4.94-4.49a11.49 11.49 0 012-.8V0A9.81 9.81 0 003.88 1.64zm4.94 0a11.49 11.49 0 012 .8l2.07-3.59A9.81 9.81 0 0012 0zM12 21.69a9.69 9.69 0 01-9.69-9.69A9.69 9.69 0 0112 2.31a9.69 9.69 0 019.69 9.69A9.69 9.69 0 0112 21.69zm0-18.38a8.69 8.69 0 00-8.69 8.69A8.69 8.69 0 0012 20.38a8.69 8.69 0 008.69-8.69A8.69 8.69 0 0012 3.31z" />
      </svg>